{
	"bufferViews":[{
		"buffer":0,
		"byteOffset":0,
		"byteLength":228,
		"target":34963
	},
	{
		"byteStride":32,
		"buffer":0,
		"byteOffset":228,
		"byteLength":3328,
		"target":34962
	},
	{
		"buffer":0,
		"byteOffset":3556,
		"byteLength":1248,
		"target":34962
	},
	{
		"buffer":0,
		"byteOffset":4804,
		"byteLength":1248,
		"target":34962
	},
	{
		"buffer":0,
		"byteOffset":6052,
		"byteLength":1248,
		"target":34962
	},
	{
		"buffer":0,
		"byteOffset":7300,
		"byteLength":1248,
		"target":34962
	},
	{
		"buffer":0,
		"byteOffset":8548,
		"byteLength":1248,
		"target":34962
	},
	{
		"buffer":0,
		"byteOffset":9796,
		"byteLength":1248,
		"target":34962
	},
	{
		"buffer":0,
		"byteOffset":11044,
		"byteLength":1248,
		"target":34962
	},
	{
		"buffer":0,
		"byteOffset":12292,
		"byteLength":1248,
		"target":34962
	},
	{
		"buffer":0,
		"byteOffset":13540,
		"byteLength":1248,
		"target":34962
	},
	{
		"buffer":0,
		"byteOffset":14788,
		"byteLength":1248,
		"target":34962
	},
	{
		"buffer":0,
		"byteOffset":16036,
		"byteLength":1248,
		"target":34962
	},
	{
		"buffer":0,
		"byteOffset":17284,
		"byteLength":1248,
		"target":34962
	},
	{
		"buffer":0,
		"byteOffset":18532,
		"byteLength":1248,
		"target":34962
	},
	{
		"buffer":0,
		"byteOffset":19780,
		"byteLength":1248,
		"target":34962
	},
	{
		"buffer":0,
		"byteOffset":21028,
		"byteLength":1248,
		"target":34962
	},
	{
		"buffer":1,
		"byteOffset":0,
		"byteLength":960
	}],
	"asset":{
		"version":"2.0",
		"generator":"Created using the official Cinema 4D glTF Exporter 1.000x284978"
	},
	"nodes":[{
		"name":"Camera",
		"translation":[263.08795166015627,
		402.5531311035156,
		-226.8175506591797],
		"rotation":[0.17635050415992738,
		-0.8236300945281982,
		-0.3842412233352661,
		-0.37801146507263186],
		"scale":[1.0,
		1.0,
		1.0],
		"camera":0
	},
	{
		"name":"Cube",
		"translation":[0.0,
		0.0,
		0.0],
		"rotation":[0.0,
		0.0,
		0.0,
		-1.0],
		"scale":[1.0,
		1.0,
		1.0],
		"mesh":0
	}],
	"scenes":[{
		"nodes":[0,
		1]
	}],
	"accessors":[{
		"bufferView":0,
		"type":"SCALAR",
		"componentType":5123,
		"count":114,
		"min":[0],
		"byteOffset":0,
		"max":[103]
	},
	{
		"bufferView":1,
		"type":"VEC3",
		"componentType":5126,
		"count":104,
		"min":[-100.0,
		-1.2262448072433472,
		-100.0],
		"byteOffset":0,
		"max":[99.99974060058594,
		1.0002893209457398,
		100.0]
	},
	{
		"bufferView":1,
		"type":"VEC3",
		"componentType":5126,
		"count":104,
		"min":[-1.0,
		-0.9999499917030335,
		-0.7071067690849304],
		"byteOffset":12,
		"max":[0.9999974966049194,
		0.9999701380729675,
		1.0]
	},
	{
		"bufferView":1,
		"type":"VEC2",
		"componentType":5126,
		"count":104,
		"min":[0.0,
		0.0],
		"byteOffset":24,
		"max":[1.0,
		1.0]
	},
	{
		"bufferView":2,
		"type":"VEC3",
		"componentType":5126,
		"count":104,
		"min":[0.0,
		0.0,
		0.0],
		"byteOffset":0,
		"max":[0.0,
		0.0,
		0.0]
	},
	{
		"bufferView":3,
		"type":"VEC3",
		"componentType":5126,
		"count":104,
		"min":[-119.63662719726563,
		-0.8538700938224793,
		0.0],
		"byteOffset":0,
		"max":[1.5200308561325074,
		100.05023956298828,
		0.0]
	},
	{
		"bufferView":4,
		"type":"VEC3",
		"componentType":5126,
		"count":104,
		"min":[-199.94871520996095,
		-1.2266430854797364,
		0.0],
		"byteOffset":0,
		"max":[0.31401047110557558,
		6.857773780822754,
		0.0]
	},
	{
		"bufferView":5,
		"type":"VEC3",
		"componentType":5126,
		"count":104,
		"min":[-115.26438903808594,
		-0.8280941247940064,
		0.0],
		"byteOffset":0,
		"max":[1.524791955947876,
		100.73774719238281,
		0.0]
	},
	{
		"bufferView":6,
		"type":"VEC3",
		"componentType":5126,
		"count":104,
		"min":[-0.0006191061111167073,
		-0.037883054465055469,
		0.0],
		"byteOffset":0,
		"max":[0.00023155435337685049,
		0.00005004968625144102,
		0.0]
	},
	{
		"bufferView":7,
		"type":"VEC3",
		"componentType":5126,
		"count":104,
		"min":[-1.15535569190979,
		-1.618328332901001,
		-78.42190551757813],
		"byteOffset":0,
		"max":[77.4649887084961,
		138.48507690429688,
		1.1696275472640992]
	},
	{
		"bufferView":8,
		"type":"VEC3",
		"componentType":5126,
		"count":104,
		"min":[-1.3270900249481202,
		-2.129739761352539,
		-199.97518920898438],
		"byteOffset":0,
		"max":[197.53506469726563,
		25.172719955444337,
		1.3434834480285645]
	},
	{
		"bufferView":9,
		"type":"VEC3",
		"componentType":5126,
		"count":104,
		"min":[-1.1193562746047974,
		-1.5626288652420045,
		-73.83831787109375],
		"byteOffset":0,
		"max":[72.93733215332031,
		136.77749633789063,
		1.1331835985183716]
	},
	{
		"bufferView":10,
		"type":"VEC3",
		"componentType":5126,
		"count":104,
		"min":[-0.003262995043769479,
		-0.037883054465055469,
		-0.004380946978926659],
		"byteOffset":0,
		"max":[0.004327489994466305,
		0.6556283831596375,
		0.0033033022191375496]
	},
	{
		"bufferView":11,
		"type":"VEC3",
		"componentType":5126,
		"count":104,
		"min":[-82.54962158203125,
		-1.873802900314331,
		-80.97728729248047],
		"byteOffset":0,
		"max":[1.169837236404419,
		140.0909423828125,
		1.1518474817276]
	},
	{
		"bufferView":12,
		"type":"VEC3",
		"componentType":5126,
		"count":104,
		"min":[-201.8317413330078,
		-2.3215041160583498,
		-197.97808837890626],
		"byteOffset":0,
		"max":[1.9624861478805543,
		8.964715957641602,
		1.9293513298034669]
	},
	{
		"bufferView":13,
		"type":"VEC3",
		"componentType":5126,
		"count":104,
		"min":[-88.01246643066406,
		-1.9646449089050294,
		-86.33575439453125],
		"byteOffset":0,
		"max":[1.2258963584899903,
		141.40213012695313,
		1.206835389137268]
	},
	{
		"bufferView":14,
		"type":"VEC3",
		"componentType":5126,
		"count":104,
		"min":[-0.01838190108537674,
		-0.037883054465055469,
		-0.022381462156772615],
		"byteOffset":0,
		"max":[0.015636054798960687,
		2.1879653930664064,
		0.015944575890898706]
	},
	{
		"bufferView":15,
		"type":"VEC3",
		"componentType":5126,
		"count":104,
		"min":[-25.481969833374025,
		-0.728182315826416,
		-26.36823081970215],
		"byteOffset":0,
		"max":[28.366823196411134,
		70.78091430664063,
		26.23482894897461]
	},
	{
		"bufferView":16,
		"type":"VEC3",
		"componentType":5126,
		"count":104,
		"min":[-1.195997953414917,
		-1.1915562152862549,
		-99.63912200927735],
		"byteOffset":0,
		"max":[201.56552124023438,
		7.116680145263672,
		101.4473876953125]
	},
	{
		"bufferView":17,
		"type":"SCALAR",
		"componentType":5126,
		"count":15,
		"min":[0.0],
		"byteOffset":0,
		"max":[6.800000190734863]
	},
	{
		"bufferView":17,
		"type":"SCALAR",
		"componentType":5126,
		"count":225,
		"min":[0.0],
		"byteOffset":60,
		"max":[1.0]
	}],
	"meshes":[{
		"name":"Cube",
		"primitives":[{
			"targets":[{
				"POSITION":4
			},
			{
				"POSITION":5
			},
			{
				"POSITION":6
			},
			{
				"POSITION":7
			},
			{
				"POSITION":8
			},
			{
				"POSITION":9
			},
			{
				"POSITION":10
			},
			{
				"POSITION":11
			},
			{
				"POSITION":12
			},
			{
				"POSITION":13
			},
			{
				"POSITION":14
			},
			{
				"POSITION":15
			},
			{
				"POSITION":16
			},
			{
				"POSITION":17
			},
			{
				"POSITION":18
			}],
			"attributes":{
				"POSITION":1,
				"NORMAL":2,
				"TEXCOORD_0":3
			},
			"indices":0
		}],
		"weights":[0.0,
		0.0,
		0.0,
		0.0,
		0.0,
		0.0,
		0.0,
		0.0,
		0.0,
		0.0,
		0.0,
		0.0,
		0.0,
		0.0,
		0.0]
	}],
	"buffers":[{
		"uri":"data:application/octet-stream;base64,",
		"byteLength":22276
	},
	{
		"uri":"data:application/octet-stream;base64,",
		"byteLength":960
	}],
	"cameras":[{
		"type":"perspective",
		"perspective":{
			"yfov":0.5483348965644836,
			"znear":0.009999999776482582,
			"zfar":10000000000.0,
			"aspectRatio":1.7777777910232545
		}
	}],
	"animations":[{
		"samplers":[{
			"input":19,
			"interpolation":"LINEAR",
			"output":20
		}],
		"channels":[{
			"sampler":0,
			"target":{
				"node":1,
				"path":"weights"
			}
		}]
	}]
}